{
  "accessors": [
    {
      "bufferView": 2,
      "componentType": 5126,
      "count": 5958,
      "max": [
        0.08836500346660614,
        0.06500999629497528,
        1.7836780548095703
      ],
      "min": [
        -0.08836500346660614,
        -0.16377699375152588,
        1.4744529724121094
      ],
      "type": "VEC3"
    },
    {
      "bufferView": 2,
      "byteOffset": 71496,
      "componentType": 5126,
      "count": 5958,
      "max": [
        0.9996629357337952,
        1.0,
        0.9997710585594177
      ],
      "min": [
        -0.9996629357337952,
        -0.9999315738677979,
        -0.9999266862869263
      ],
      "type": "VEC3"
    },
    {
      "bufferView": 1,
      "componentType": 5126,
      "count": 5958,
      "max": [
        0.5151410102844238,
        0.4390130043029785
      ],
      "min": [
        0.0017839999636635184,
        0.001724999980069697
      ],
      "type": "VEC2"
    },
    {
      "bufferView": 0,
      "componentType": 5125,
      "count": 34524,
      "type": "SCALAR"
    },
    {
      "bufferView": 2,
      "byteOffset": 142992,
      "componentType": 5126,
      "count": 1098,
      "max": [
        0.04632800072431564,
        -0.10242199897766113,
        1.682608962059021
      ],
      "min": [
        -0.04632800072431564,
        -0.13005200028419495,
        1.6562199592590332
      ],
      "type": "VEC3"
    },
    {
      "bufferView": 2,
      "byteOffset": 156168,
      "componentType": 5126,
      "count": 1098,
      "max": [
        1.0,
        1.0,
        1.0
      ],
      "min": [
        -1.0,
        -1.0,
        -1.0
      ],
      "type": "VEC3"
    },
    {
      "bufferView": 1,
      "byteOffset": 47664,
      "componentType": 5126,
      "count": 1098,
      "max": [
        0.9814860224723816,
        0.9869880080223083
      ],
      "min": [
        0.02284800074994564,
        0.007042999844998121
      ],
      "type": "VEC2"
    },
    {
      "bufferView": 0,
      "byteOffset": 138096,
      "componentType": 5125,
      "count": 5520,
      "type": "SCALAR"
    }
  ],
  "asset": {
    "extras": {
      "author": "Dinendra Neyo (https://sketchfab.com/NeyoZ)",
      "license": "CC-BY-4.0 (http://creativecommons.org/licenses/by/4.0/)",
      "source": "https://sketchfab.com/3d-models/european-male-head-free-low-poly-3d-model-b94897357d6146de91ce34f2a905a7d4",
      "title": "European Male head Free Low Poly 3D Model"
    },
    "generator": "Sketchfab-15.25.0",
    "version": "2.0"
  },
  "bufferViews": [
    {
      "buffer": 0,
      "byteLength": 160176,
      "name": "floatBufferViews",
      "target": 34963
    },
    {
      "buffer": 0,
      "byteLength": 56448,
      "byteOffset": 160176,
      "byteStride": 8,
      "name": "floatBufferViews",
      "target": 34962
    },
    {
      "buffer": 0,
      "byteLength": 169344,
      "byteOffset": 216624,
      "byteStride": 12,
      "name": "floatBufferViews",
      "target": 34962
    }
  ],
  "buffers": [
    {
      "byteLength": 385968,
      "uri": "Person.bin"
    }
  ],
  "extensionsUsed": [
    "KHR_materials_specular"
  ],
  "images": [
    {
      "uri": "textures/Material.002_baseColor.jpeg"
    },
    {
      "uri": "textures/Material.004_metallicRoughness.png"
    }
  ],
  "materials": [
    {
      "doubleSided": true,
      "name": "Material.002",
      "pbrMetallicRoughness": {
        "baseColorTexture": {
          "index": 0
        },
        "roughnessFactor": 0.8063508326896291
      }
    },
    {
      "doubleSided": true,
      "extensions": {
        "KHR_materials_specular": {
          "specularColorFactor": [
            1.0,
            1.0,
            1.0
          ],
          "specularFactor": 0.0
        }
      },
      "name": "Material.004",
      "pbrMetallicRoughness": {
        "baseColorFactor": [
          0.4829087623184595,
          0.1905376239066424,
          0.11177385655100207,
          1.0
        ],
        "metallicFactor": 0.0,
        "metallicRoughnessTexture": {
          "index": 1
        }
      }
    }
  ],
  "meshes": [
    {
      "name": "Object_0",
      "primitives": [
        {
          "attributes": {
            "NORMAL": 1,
            "POSITION": 0,
            "TEXCOORD_0": 2
          },
          "indices": 3,
          "material": 1,
          "mode": 4
        }
      ]
    },
    {
      "name": "Object_1",
      "primitives": [
        {
          "attributes": {
            "NORMAL": 5,
            "POSITION": 4,
            "TEXCOORD_0": 6
          },
          "indices": 7,
          "material": 0,
          "mode": 4
        }
      ]
    }
  ],
  "nodes": [
    {
      "children": [
        1
      ],
      "matrix": [
        1.0,
        -1.6081226229577292e-16,
        -6.7157552731228e-32,
        0.0,
        1.4104348231229717e-32,
        5.053215392444312e-16,
        -1.0,
        0.0,
        1.6081226229577292e-16,
        1.0,
        5.053215392444312e-16,
        0.0,
        0.0,
        0.0,
        0.0,
        1.0
      ],
      "name": "Sketchfab_model"
    },
    {
      "children": [
        2,
        3
      ],
      "name": "free_head.obj.cleaner.materialmerger.gles"
    },
    {
      "mesh": 0,
      "name": "Object_2"
    },
    {
      "mesh": 1,
      "name": "Object_3"
    }
  ],
  "samplers": [
    {
      "magFilter": 9729,
      "minFilter": 9987,
      "wrapS": 10497,
      "wrapT": 10497
    }
  ],
  "scene": 0,
  "scenes": [
    {
      "name": "Sketchfab_Scene",
      "nodes": [
        0
      ]
    }
  ],
  "textures": [
    {
      "sampler": 0,
      "source": 0
    },
    {
      "sampler": 0,
      "source": 1
    }
  ]
}
