{
  "accessors": [
    {
      "bufferView": 3,
      "componentType": 5126,
      "count": 4016,
      "max": [
        25.971967697143555,
        -9.924249649047852,
        91.6339340209961
      ],
      "min": [
        -28.3294734954834,
        -135.76239013671875,
        -120.30998992919922
      ],
      "type": "VEC3"
    },
    {
      "bufferView": 3,
      "byteOffset": 48192,
      "componentType": 5126,
      "count": 4016,
      "max": [
        1.0,
        1.0,
        1.0
      ],
      "min": [
        -1.0,
        -1.0,
        -1.0
      ],
      "type": "VEC3"
    },
    {
      "bufferView": 2,
      "componentType": 5126,
      "count": 4016,
      "max": [
        0.9946979880332947,
        1.0895639657974243
      ],
      "min": [
        0.0017630000365898013,
        0.005583047866821289
      ],
      "type": "VEC2"
    },
    {
      "bufferView": 2,
      "byteOffset": 32128,
      "componentType": 5126,
      "count": 4016,
      "max": [
        0.9946979880332947,
        1.0895639657974243
      ],
      "min": [
        0.0017630000365898013,
        0.005583047866821289
      ],
      "type": "VEC2"
    },
    {
      "bufferView": 1,
      "componentType": 5125,
      "count": 11088,
      "type": "SCALAR"
    },
    {
      "bufferView": 3,
      "byteOffset": 96384,
      "componentType": 5126,
      "count": 6123,
      "max": [
        96.0,
        0.0,
        102.45330810546875
      ],
      "min": [
        -96.0,
        -80.34632110595703,
        -96.00000762939453
      ],
      "type": "VEC3"
    },
    {
      "bufferView": 3,
      "byteOffset": 169860,
      "componentType": 5126,
      "count": 6123,
      "max": [
        1.0,
        1.0,
        1.0
      ],
      "min": [
        -1.0,
        -1.0,
        -1.0
      ],
      "type": "VEC3"
    },
    {
      "bufferView": 2,
      "byteOffset": 64256,
      "componentType": 5126,
      "count": 6123,
      "max": [
        0.9965559840202332,
        0.9964010119438171
      ],
      "min": [
        0.0028470000252127647,
        0.004510998725891113
      ],
      "type": "VEC2"
    },
    {
      "bufferView": 1,
      "byteOffset": 44352,
      "componentType": 5125,
      "count": 16113,
      "type": "SCALAR"
    },
    {
      "bufferView": 3,
      "byteOffset": 243336,
      "componentType": 5126,
      "count": 72,
      "max": [
        93.01287078857422,
        0.08169399946928024,
        93.01287078857422
      ],
      "min": [
        -93.01286315917969,
        -1.6705429553985596,
        -93.01287078857422
      ],
      "type": "VEC3"
    },
    {
      "bufferView": 3,
      "byteOffset": 244200,
      "componentType": 5126,
      "count": 72,
      "max": [
        0.0,
        1.0,
        0.0
      ],
      "min": [
        0.0,
        -1.0,
        0.0
      ],
      "type": "VEC3"
    },
    {
      "bufferView": 2,
      "byteOffset": 113240,
      "componentType": 5126,
      "count": 72,
      "max": [
        0.9890239834785461,
        0.9984369874000549
      ],
      "min": [
        0.010975999757647514,
        0.020388007164001465
      ],
      "type": "VEC2"
    },
    {
      "bufferView": 1,
      "byteOffset": 108804,
      "componentType": 5125,
      "count": 132,
      "type": "SCALAR"
    },
    {
      "bufferView": 5,
      "componentType": 5126,
      "count": 13,
      "max": [
        1.0,
        0.0,
        9.965839353753836e-07,
        0.0,
        0.6601641774177551,
        1.0,
        0.9540039896965027,
        0.0,
        0.93839430809021,
        1.1970773527991696e-07,
        1.0,
        0.0,
        111.18292999267578,
        108.63240051269531,
        116.03521728515625,
        1.0
      ],
      "min": [
        -1.104590069189726e-06,
        -1.0,
        -6.530726750497706e-07,
        0.0,
        -0.6601641774177551,
        -0.00039419755921699107,
        -0.93839430809021,
        0.0,
        -0.9540031552314758,
        -0.0012548406375572085,
        -0.6601641774177551,
        0.0,
        -71.45134735107422,
        -2.7673864364624023,
        -88.37364959716797,
        1.0
      ],
      "type": "MAT4"
    },
    {
      "bufferView": 0,
      "componentType": 5123,
      "count": 4016,
      "type": "VEC4"
    },
    {
      "bufferView": 4,
      "componentType": 5126,
      "count": 4016,
      "max": [
        1.0,
        0.0,
        0.0,
        0.0
      ],
      "min": [
        1.0,
        0.0,
        0.0,
        0.0
      ],
      "type": "VEC4"
    },
    {
      "bufferView": 0,
      "byteOffset": 32128,
      "componentType": 5123,
      "count": 6123,
      "type": "VEC4"
    },
    {
      "bufferView": 4,
      "byteOffset": 64256,
      "componentType": 5126,
      "count": 6123,
      "max": [
        1.0,
        0.0,
        0.0,
        0.0
      ],
      "min": [
        1.0,
        0.0,
        0.0,
        0.0
      ],
      "type": "VEC4"
    },
    {
      "bufferView": 0,
      "byteOffset": 81112,
      "componentType": 5123,
      "count": 72,
      "type": "VEC4"
    },
    {
      "bufferView": 4,
      "byteOffset": 162224,
      "componentType": 5126,
      "count": 72,
      "max": [
        1.0,
        0.0,
        0.0,
        0.0
      ],
      "min": [
        1.0,
        0.0,
        0.0,
        0.0
      ],
      "type": "VEC4"
    }
  ],
  "asset": {
    "extras": {
      "author": "DAVID.3D.ART (https://sketchfab.com/david3dart)",
      "license": "CC-BY-NC-4.0 (http://creativecommons.org/licenses/by-nc/4.0/)",
      "source": "https://sketchfab.com/3d-models/arm-interior-192-from-portal-2-original-7a60dcf3b6e247349a18a42899c06a3e",
      "title": "Arm Interior 192 - From Portal 2 (Original)"
    },
    "generator": "Sketchfab-15.36.0",
    "version": "2.0"
  },
  "bufferViews": [
    {
      "buffer": 0,
      "byteLength": 81688,
      "byteStride": 8,
      "name": "shortBufferViews",
      "target": 34962
    },
    {
      "buffer": 0,
      "byteLength": 109332,
      "byteOffset": 81688,
      "name": "floatBufferViews",
      "target": 34963
    },
    {
      "buffer": 0,
      "byteLength": 113816,
      "byteOffset": 191020,
      "byteStride": 8,
      "name": "floatBufferViews",
      "target": 34962
    },
    {
      "buffer": 0,
      "byteLength": 245064,
      "byteOffset": 304836,
      "byteStride": 12,
      "name": "floatBufferViews",
      "target": 34962
    },
    {
      "buffer": 0,
      "byteLength": 163376,
      "byteOffset": 549900,
      "byteStride": 16,
      "name": "floatBufferViews",
      "target": 34962
    },
    {
      "buffer": 0,
      "byteLength": 832,
      "byteOffset": 713276,
      "name": "floatBufferViews"
    }
  ],
  "buffers": [
    {
      "byteLength": 714108,
      "uri": "ComputerAnimate.bin"
    }
  ],
  "extensionsUsed": [
    "KHR_materials_specular",
    "KHR_materials_emissive_strength"
  ],
  "images": [
    {
      "uri": "textures/arm_interior_192_bose_baseColor.jpeg"
    },
    {
      "uri": "textures/arm_motionplatform_baseColor.jpeg"
    },
    {
      "uri": "textures/arm_motionplatform_emissive.png"
    },
    {
      "uri": "textures/arm_glasstop_baseColor.jpeg"
    }
  ],
  "materials": [
    {
      "doubleSided": true,
      "extensions": {
        "KHR_materials_specular": {
          "specularColorFactor": [
            1.0,
            1.0,
            1.0
          ],
          "specularFactor": 0.1
        }
      },
      "name": "arm_interior_192_bose",
      "pbrMetallicRoughness": {
        "baseColorTexture": {
          "index": 0
        },
        "metallicFactor": 0.0,
        "roughnessFactor": 0.5
      }
    },
    {
      "doubleSided": true,
      "emissiveFactor": [
        1.0,
        1.0,
        1.0
      ],
      "emissiveTexture": {
        "index": 2
      },
      "extensions": {
        "KHR_materials_emissive_strength": {
          "emissiveStrength": 10.0
        },
        "KHR_materials_specular": {
          "specularColorFactor": [
            1.0,
            1.0,
            1.0
          ],
          "specularFactor": 0.1
        }
      },
      "name": "arm_motionplatform",
      "pbrMetallicRoughness": {
        "baseColorTexture": {
          "index": 1
        },
        "metallicFactor": 0.0,
        "roughnessFactor": 0.5
      }
    },
    {
      "doubleSided": true,
      "extensions": {
        "KHR_materials_specular": {
          "specularColorFactor": [
            1.0,
            1.0,
            1.0
          ],
          "specularFactor": 0.01
        }
      },
      "name": "arm_glasstop",
      "pbrMetallicRoughness": {
        "baseColorTexture": {
          "index": 3
        },
        "metallicFactor": 0.0,
        "roughnessFactor": 0.22400068266874718
      }
    }
  ],
  "meshes": [
    {
      "name": "arm_interior_192_model_2_arm_interior_192_bose_0",
      "primitives": [
        {
          "attributes": {
            "JOINTS_0": 14,
            "NORMAL": 1,
            "POSITION": 0,
            "TEXCOORD_0": 2,
            "TEXCOORD_1": 3,
            "WEIGHTS_0": 15
          },
          "indices": 4,
          "material": 0,
          "mode": 4
        }
      ]
    },
    {
      "name": "arm_interior_192_model_2_arm_motionplatform_0",
      "primitives": [
        {
          "attributes": {
            "JOINTS_0": 16,
            "NORMAL": 6,
            "POSITION": 5,
            "TEXCOORD_0": 7,
            "TEXCOORD_1": 7,
            "WEIGHTS_0": 17
          },
          "indices": 8,
          "material": 1,
          "mode": 4
        }
      ]
    },
    {
      "name": "arm_interior_192_model_2_arm_glasstop_0",
      "primitives": [
        {
          "attributes": {
            "JOINTS_0": 18,
            "NORMAL": 10,
            "POSITION": 9,
            "TEXCOORD_0": 11,
            "WEIGHTS_0": 19
          },
          "indices": 12,
          "material": 2,
          "mode": 4
        }
      ]
    }
  ],
  "nodes": [
    {
      "children": [
        1
      ],
      "matrix": [
        1.0,
        0.0,
        0.0,
        0.0,
        0.0,
        3.828568672208042e-16,
        -1.0,
        0.0,
        0.0,
        1.0,
        3.828568672208042e-16,
        0.0,
        0.0,
        0.0,
        0.0,
        1.0
      ],
      "name": "Sketchfab_model"
    },
    {
      "children": [
        2
      ],
      "matrix": [
        0.009999999776482582,
        0.0,
        0.0,
        0.0,
        0.0,
        0.0,
        0.009999999776482582,
        0.0,
        0.0,
        -0.009999999776482582,
        0.0,
        0.0,
        0.0,
        0.0,
        0.0,
        1.0
      ],
      "name": "91ad252a79a844d7947907e8b240e4b4.fbx"
    },
    {
      "children": [
        3,
        5
      ],
      "name": "RootNode"
    },
    {
      "children": [
        4
      ],
      "matrix": [
        -0.6995419825983575,
        -0.37703267634684456,
        -0.6070316100081568,
        0.0,
        -0.2847659231976569,
        0.9261999573346652,
        -0.2471072803837447,
        0.0,
        0.6554001705582213,
        -1.8041124150158794e-16,
        -0.7552818125919984,
        0.0,
        279.2005310058594,
        133.7907257080078,
        260.65966796875,
        1.0
      ],
      "name": "CINEMA_4D_Editor"
    },
    {
      "name": "Object_4"
    },
    {
      "children": [
        6
      ],
      "name": "arm_interior_192_model"
    },
    {
      "children": [
        7
      ],
      "name": "skeleton"
    },
    {
      "children": [
        8,
        10,
        11,
        12,
        9
      ],
      "name": "Object_7"
    },
    {
      "children": [
        13
      ],
      "name": "_rootJoint"
    },
    {
      "matrix": [
        1.0,
        -1.6704779438076223e-52,
        0.0,
        0.0,
        1.6704779438076223e-52,
        1.0,
        0.0,
        0.0,
        0.0,
        0.0,
        1.0,
        0.0,
        0.0,
        0.0,
        0.0,
        1.0
      ],
      "name": "Object_9"
    },
    {
      "mesh": 0,
      "name": "Object_10",
      "skin": 0
    },
    {
      "mesh": 1,
      "name": "Object_11",
      "skin": 0
    },
    {
      "mesh": 2,
      "name": "Object_12",
      "skin": 0
    },
    {
      "children": [
        14,
        15,
        16,
        17,
        18,
        19
      ],
      "name": "arm_192_root_00"
    },
    {
      "name": "arm_192_pistonB_tip_01",
      "rotation": [
        -0.6442363858222961,
        0.6442372798919678,
        -0.2914772033691406,
        -0.2914772629737854
      ],
      "translation": [
        3.3084659576416016,
        -31.512035369873047,
        67.43016815185547
      ]
    },
    {
      "name": "arm_192_pistonC_tip_02",
      "rotation": [
        0.579992949962616,
        -0.5799925923347473,
        -0.4044855237007141,
        -0.40448516607284546
      ],
      "translation": [
        0.0,
        -32.02359390258789,
        51.853614807128906
      ]
    },
    {
      "name": "arm_192_pistonC_base_03",
      "rotation": [
        0.404485285282135,
        -0.40448540449142456,
        0.5799926519393921,
        0.5799928307533264
      ],
      "translation": [
        0.0,
        -75.77922821044922,
        -66.9659652709961
      ]
    },
    {
      "name": "arm_192_pistonB_base_04",
      "rotation": [
        -0.2914769947528839,
        0.29147738218307495,
        0.6442363858222961,
        0.644237220287323
      ],
      "translation": [
        3.308439016342163,
        -57.741416931152344,
        97.27339172363281
      ]
    },
    {
      "name": "arm_192_pistonA_tip_05",
      "rotation": [
        0.5704172253608704,
        -0.5696675181388855,
        -0.41811633110046387,
        -0.41866669058799744
      ],
      "translation": [
        -2.865699052810669,
        -27.39851951599121,
        86.95172882080078
      ]
    },
    {
      "children": [
        20
      ],
      "name": "arm_192_baseZ_06",
      "translation": [
        0.0,
        -86.56133270263672,
        -116.03521728515625
      ]
    },
    {
      "children": [
        21
      ],
      "name": "arm_192_baseY_07",
      "translation": [
        0.0,
        23.065078735351563,
        19.083091735839844
      ]
    },
    {
      "children": [
        22
      ],
      "name": "arm_192_baseX01_08",
      "translation": [
        0.0,
        -45.136146545410156,
        20.7252197265625
      ]
    },
    {
      "children": [
        23
      ],
      "name": "arm_192_baseX02_09",
      "translation": [
        0.0,
        57.919281005859375,
        164.60055541992188
      ]
    },
    {
      "children": [
        24
      ],
      "name": "arm_192_baseX03_010",
      "translation": [
        0.0,
        27.181781768798828,
        -147.00198364257813
      ]
    },
    {
      "name": "arm_192_tip_011",
      "translation": [
        0.0,
        23.53133773803711,
        58.628334045410156
      ]
    }
  ],
  "samplers": [
    {
      "magFilter": 9729,
      "minFilter": 9987,
      "wrapS": 10497,
      "wrapT": 10497
    },
    {
      "magFilter": 9729,
      "minFilter": 9729,
      "wrapS": 10497,
      "wrapT": 10497
    }
  ],
  "scene": 0,
  "scenes": [
    {
      "name": "Sketchfab_Scene",
      "nodes": [
        0
      ]
    }
  ],
  "skins": [
    {
      "inverseBindMatrices": 13,
      "joints": [
        8,
        13,
        14,
        15,
        16,
        17,
        18,
        19,
        20,
        21,
        22,
        23,
        24
      ],
      "skeleton": 8
    }
  ],
  "textures": [
    {
      "sampler": 0,
      "source": 0
    },
    {
      "sampler": 0,
      "source": 1
    },
    {
      "sampler": 0,
      "source": 2
    },
    {
      "sampler": 1,
      "source": 3
    }
  ]
}
